<svg version="1.1" xmlns="http://www.w3.org/2000/svg" xmlns:xlink="http://www.w3.org/1999/xlink" x="0px" y="0px" width="24px"
	 height="24px" viewBox="0 0 24 24" enable-background="new 0 0 24 24" xml:space="preserve">
<g id="Outline_Icons_1_">
	<g id="Outline_Icons">
		<g>
			<path fill="none" stroke="#000000" stroke-linecap="round" stroke-linejoin="round" stroke-miterlimit="10" d="M11.516,20.5
				c0-2,0.984-3,2.984-3c1.5,0,6,0,6,0v-16c0,0-5.5,0-6,0c-2,0-3,1-3,3c0-2-1-3-3-3c-0.5,0-6,0-6,0v16c0,0,4.5,0,6,0
				C10.5,17.5,11.516,18.5,11.516,20.5z"/>
			<path fill="none" stroke="#000000" stroke-linecap="round" stroke-linejoin="round" stroke-miterlimit="10" d="M20.5,3.5h2v16
				c0,0-4.5,0-6,0c-2,0-3.5,1-3.5,3h-3c0-2-1.5-3-3.5-3c-1.5,0-6,0-6,0v-16h2"/>

				<line fill="none" stroke="#000000" stroke-linecap="round" stroke-linejoin="round" stroke-miterlimit="10" x1="11.5" y1="4.5" x2="11.5" y2="20"/>
		</g>
	</g>
	<g id="New_icons_1_">
	</g>
</g>
<g id="Invisible_Shape">
	<rect fill="none" width="24" height="24"/>
</g>
</svg>
