<svg version="1.1" id="Ebene_1" xmlns="http://www.w3.org/2000/svg" xmlns:xlink="http://www.w3.org/1999/xlink" x="0px" y="0px"
	 viewBox="0 0 24 24" enable-background="new 0 0 24 24" xml:space="preserve">
<g id="Filled_Icons">
    <path fill-rule="evenodd" clip-rule="evenodd" d="M12,0.8C5.6,0.8,0.5,5.9,0.5,12.3c0,5.1,3.3,9.4,7.9,10.9
        c0.6,0.1,0.8-0.2,0.8-0.6c0-0.3,0-1,0-2c-3.2,0.7-3.9-1.5-3.9-1.5C4.7,17.8,4,17.5,4,17.5c-1-0.7,0.1-0.7,0.1-0.7
        c1.2,0.1,1.8,1.2,1.8,1.2c1,1.8,2.7,1.2,3.3,1c0.1-0.7,0.4-1.2,0.7-1.5c-2.6-0.3-5.2-1.3-5.2-5.7c0-1.3,0.4-2.3,1.2-3.1
        C5.7,8.3,5.3,7.1,6,5.6c0,0,1-0.3,3.2,1.2C10,6.5,11,6.3,12,6.3c1,0,2,0.1,2.9,0.4C17.1,5.2,18,5.6,18,5.6c0.6,1.6,0.2,2.8,0.1,3
        c0.7,0.8,1.2,1.8,1.2,3.1c0,4.4-2.7,5.4-5.3,5.7c0.4,0.4,0.8,1.1,0.8,2.1c0,1.5,0,2.8,0,3.2c0,0.3,0.2,0.7,0.8,0.6
        c4.6-1.5,7.9-5.8,7.9-10.9C23.5,5.9,18.4,0.8,12,0.8z"/>
</g>
<g id="Invisible_Shape">
    <rect fill="none" width="24" height="24"/>
</g>
</svg>
