<svg version="1.1" id="Ebene_1" xmlns="http://www.w3.org/2000/svg" xmlns:xlink="http://www.w3.org/1999/xlink" x="0px" y="0px"
	 viewBox="0 0 24 24" enable-background="new 0 0 24 24" xml:space="preserve">
<g id="Outline_Icons">
	<g>
		<path fill="none" stroke="#000000" stroke-miterlimit="10" d="M16.8,16.4C13.9,16.4,9.7,6.3,9.7,3c0-1.2,0.3-1.7,0.7-2
			C6.8,1.4,2.6,2.7,1.2,4.3C0.9,4.7,0.8,5.4,0.8,6.2c0,5.3,5.6,17.2,9.6,17.2c1.8,0,4.9-3,7.5-7.1C17.4,16.4,17.2,16.4,16.8,16.4z"
			/>
		<path fill="none" stroke="#000000" stroke-miterlimit="10" d="M15.9,0.6c3.7,0,7.3,0.6,7.3,2.7c0,4.2-2.7,9.3-4,9.3
			c-2.4,0-5.4-6.7-5.4-10.1C13.8,0.9,14.4,0.6,15.9,0.6"/>
	</g>
</g>
<g id="Invisible_Shape">
	<rect fill="none" width="24" height="24"/>
</g>
</svg>
